<mxfile host="app.diagrams.net" modified="2024-06-20T04:02:19.456Z" agent="Mozilla/5.0 (Windows NT 10.0; Win64; x64) AppleWebKit/537.36 (KHTML, like Gecko) Chrome/126.0.0.0 Safari/537.36" etag="0BPAgx9lq-LvgsyQeSrQ" version="24.5.5" type="github">
  <diagram name="Halaman-1" id="NbvUbX4RFmlrK1p2wn1p">
    <mxGraphModel dx="1677" dy="1991" grid="1" gridSize="10" guides="1" tooltips="1" connect="1" arrows="1" fold="1" page="1" pageScale="1" pageWidth="827" pageHeight="1169" math="0" shadow="0">
      <root>
        <mxCell id="0" />
        <mxCell id="1" parent="0" />
        <mxCell id="QIvJohPsyX0bkGxef3Ci-12" value="" style="edgeStyle=orthogonalEdgeStyle;rounded=0;orthogonalLoop=1;jettySize=auto;html=1;labelBackgroundColor=none;fontColor=default;" edge="1" parent="1" source="QIvJohPsyX0bkGxef3Ci-2" target="QIvJohPsyX0bkGxef3Ci-3">
          <mxGeometry relative="1" as="geometry">
            <Array as="points">
              <mxPoint x="211" y="-930" />
              <mxPoint x="211" y="-930" />
            </Array>
          </mxGeometry>
        </mxCell>
        <mxCell id="QIvJohPsyX0bkGxef3Ci-2" value="&lt;font style=&quot;font-size: 30px;&quot;&gt;Start&lt;/font&gt;" style="rounded=1;whiteSpace=wrap;html=1;labelBackgroundColor=none;" vertex="1" parent="1">
          <mxGeometry x="143.12" y="-1140" width="133.75" height="80" as="geometry" />
        </mxCell>
        <mxCell id="QIvJohPsyX0bkGxef3Ci-6" value="" style="edgeStyle=orthogonalEdgeStyle;rounded=0;orthogonalLoop=1;jettySize=auto;html=1;labelBackgroundColor=none;fontColor=default;" edge="1" parent="1" source="QIvJohPsyX0bkGxef3Ci-3" target="QIvJohPsyX0bkGxef3Ci-5">
          <mxGeometry relative="1" as="geometry" />
        </mxCell>
        <mxCell id="QIvJohPsyX0bkGxef3Ci-16" style="edgeStyle=orthogonalEdgeStyle;rounded=0;orthogonalLoop=1;jettySize=auto;html=1;entryX=0.5;entryY=0;entryDx=0;entryDy=0;labelBackgroundColor=none;fontColor=default;" edge="1" parent="1" source="QIvJohPsyX0bkGxef3Ci-3" target="QIvJohPsyX0bkGxef3Ci-13">
          <mxGeometry relative="1" as="geometry" />
        </mxCell>
        <mxCell id="QIvJohPsyX0bkGxef3Ci-3" value="&lt;font style=&quot;font-size: 13px;&quot;&gt;Apakah habis dibagi 4?&lt;/font&gt;" style="rhombus;whiteSpace=wrap;html=1;rounded=1;labelBackgroundColor=none;" vertex="1" parent="1">
          <mxGeometry x="130" y="-990" width="160" height="140" as="geometry" />
        </mxCell>
        <mxCell id="QIvJohPsyX0bkGxef3Ci-8" value="" style="edgeStyle=orthogonalEdgeStyle;rounded=0;orthogonalLoop=1;jettySize=auto;html=1;labelBackgroundColor=none;fontColor=default;" edge="1" parent="1" source="QIvJohPsyX0bkGxef3Ci-5" target="QIvJohPsyX0bkGxef3Ci-7">
          <mxGeometry relative="1" as="geometry" />
        </mxCell>
        <mxCell id="QIvJohPsyX0bkGxef3Ci-18" value="" style="edgeStyle=orthogonalEdgeStyle;rounded=0;orthogonalLoop=1;jettySize=auto;html=1;labelBackgroundColor=none;fontColor=default;" edge="1" parent="1" source="QIvJohPsyX0bkGxef3Ci-5" target="QIvJohPsyX0bkGxef3Ci-17">
          <mxGeometry relative="1" as="geometry" />
        </mxCell>
        <mxCell id="QIvJohPsyX0bkGxef3Ci-5" value="Apakah habis dibagi 100?" style="rhombus;whiteSpace=wrap;html=1;rounded=1;labelBackgroundColor=none;" vertex="1" parent="1">
          <mxGeometry x="300" y="-840" width="160" height="140" as="geometry" />
        </mxCell>
        <mxCell id="QIvJohPsyX0bkGxef3Ci-20" value="" style="edgeStyle=orthogonalEdgeStyle;rounded=0;orthogonalLoop=1;jettySize=auto;html=1;labelBackgroundColor=none;fontColor=default;" edge="1" parent="1" source="QIvJohPsyX0bkGxef3Ci-7" target="QIvJohPsyX0bkGxef3Ci-19">
          <mxGeometry relative="1" as="geometry" />
        </mxCell>
        <mxCell id="QIvJohPsyX0bkGxef3Ci-22" value="" style="edgeStyle=orthogonalEdgeStyle;rounded=0;orthogonalLoop=1;jettySize=auto;html=1;labelBackgroundColor=none;fontColor=default;" edge="1" parent="1" source="QIvJohPsyX0bkGxef3Ci-7" target="QIvJohPsyX0bkGxef3Ci-21">
          <mxGeometry relative="1" as="geometry" />
        </mxCell>
        <mxCell id="QIvJohPsyX0bkGxef3Ci-7" value="Apakah habis dibagi 400" style="rhombus;whiteSpace=wrap;html=1;rounded=1;labelBackgroundColor=none;" vertex="1" parent="1">
          <mxGeometry x="470" y="-680" width="160" height="140" as="geometry" />
        </mxCell>
        <mxCell id="QIvJohPsyX0bkGxef3Ci-13" value="Bukan kabisat" style="whiteSpace=wrap;html=1;rounded=1;labelBackgroundColor=none;fillColor=#e51400;strokeColor=#B20000;fontColor=#ffffff;" vertex="1" parent="1">
          <mxGeometry x="30" y="-830" width="90" height="60" as="geometry" />
        </mxCell>
        <mxCell id="QIvJohPsyX0bkGxef3Ci-17" value="Kabisat" style="whiteSpace=wrap;html=1;rounded=1;labelBackgroundColor=none;fillColor=#60a917;fontColor=#ffffff;strokeColor=#2D7600;" vertex="1" parent="1">
          <mxGeometry x="190" y="-690" width="92.5" height="70" as="geometry" />
        </mxCell>
        <mxCell id="QIvJohPsyX0bkGxef3Ci-19" value="Bukan kabisat" style="whiteSpace=wrap;html=1;rounded=1;labelBackgroundColor=none;fillColor=#e51400;fontColor=#ffffff;strokeColor=#B20000;" vertex="1" parent="1">
          <mxGeometry x="360" y="-524" width="90" height="70" as="geometry" />
        </mxCell>
        <mxCell id="QIvJohPsyX0bkGxef3Ci-21" value="Kabisat" style="whiteSpace=wrap;html=1;rounded=1;labelBackgroundColor=none;fillColor=#60a917;strokeColor=#2D7600;fontColor=#ffffff;" vertex="1" parent="1">
          <mxGeometry x="660" y="-519" width="90" height="60" as="geometry" />
        </mxCell>
        <mxCell id="QIvJohPsyX0bkGxef3Ci-23" value="NO" style="text;strokeColor=none;align=center;fillColor=none;html=1;verticalAlign=middle;whiteSpace=wrap;rounded=0;labelBackgroundColor=none;" vertex="1" parent="1">
          <mxGeometry x="83.12" y="-950" width="60" height="30" as="geometry" />
        </mxCell>
        <mxCell id="QIvJohPsyX0bkGxef3Ci-25" value="NO" style="text;strokeColor=none;align=center;fillColor=none;html=1;verticalAlign=middle;whiteSpace=wrap;rounded=0;labelBackgroundColor=none;" vertex="1" parent="1">
          <mxGeometry x="250" y="-800" width="60" height="30" as="geometry" />
        </mxCell>
        <mxCell id="QIvJohPsyX0bkGxef3Ci-26" value="NO" style="text;strokeColor=none;align=center;fillColor=none;html=1;verticalAlign=middle;whiteSpace=wrap;rounded=0;labelBackgroundColor=none;" vertex="1" parent="1">
          <mxGeometry x="420" y="-640" width="60" height="30" as="geometry" />
        </mxCell>
        <mxCell id="QIvJohPsyX0bkGxef3Ci-27" value="Yes" style="text;strokeColor=none;align=center;fillColor=none;html=1;verticalAlign=middle;whiteSpace=wrap;rounded=0;labelBackgroundColor=none;" vertex="1" parent="1">
          <mxGeometry x="630" y="-640" width="60" height="30" as="geometry" />
        </mxCell>
        <mxCell id="QIvJohPsyX0bkGxef3Ci-28" value="Yes" style="text;strokeColor=none;align=center;fillColor=none;html=1;verticalAlign=middle;whiteSpace=wrap;rounded=0;labelBackgroundColor=none;" vertex="1" parent="1">
          <mxGeometry x="460" y="-800" width="60" height="30" as="geometry" />
        </mxCell>
        <mxCell id="QIvJohPsyX0bkGxef3Ci-29" value="Yes" style="text;strokeColor=none;align=center;fillColor=none;html=1;verticalAlign=middle;whiteSpace=wrap;rounded=0;labelBackgroundColor=none;" vertex="1" parent="1">
          <mxGeometry x="290" y="-950" width="60" height="30" as="geometry" />
        </mxCell>
      </root>
    </mxGraphModel>
  </diagram>
</mxfile>
